UNKNOWN
nRows=4
nColumns=264

# SIMM Motion File Header:
name UNKNOWN
datacolumns 264
datarows 4
otherdata 1
range 0.15000000 0.17500000
endheader
time	pelvis_tx	pelvis_ty	pelvis_tz	pelvis_list	pelvis_rotation	pelvis_tilt	hip_flexion_r	hip_adduction_r	hip_rotation_r	knee_angle_r	ankle_angle_r	subtalar_angle_r	mtp_angle_r	hip_flexion_l	hip_adduction_l	hip_rotation_l	knee_angle_l	ankle_angle_l	subtalar_angle_l	mtp_angle_l	lumbar_extension	lumbar_bending	lumbar_rotation	midhip_tx	midhip_ty	midhip_tz	hip_r_tx	hip_r_ty	hip_r_tz	hip_l_tx	hip_l_ty	hip_l_tz	knee_r_tx	knee_r_ty	knee_r_tz	knee_l_tx	knee_l_ty	knee_l_tz	ankle_r_tx	ankle_r_ty	ankle_r_tz	ankle_l_tx	ankle_l_ty	ankle_l_tz	midasis_tx	midasis_ty	midasis_tz	asis_r_tx	asis_r_ty	asis_r_tz	asis_l_tx	asis_l_ty	asis_l_tz	psis_r_tx	psis_r_ty	psis_r_tz	psis_l_tx	psis_l_ty	psis_l_tz	epicondLat_r_tx	epicondLat_r_ty	epicondLat_r_tz	epicondLat_l_tx	epicondLat_l_ty	epicondLat_l_tz	epicondMed_r_tx	epicondMed_r_ty	epicondMed_r_tz	epicondMed_l_tx	epicondMed_l_ty	epicondMed_l_tz	malleolusLat_r_tx	malleolusLat_r_ty	malleolusLat_r_tz	malleolusLat_l_tx	malleolusLat_l_ty	malleolusLat_l_tz	malleolusMedv_r_tx	malleolusMedv_r_ty	malleolusMedv_r_tz	malleolusMedv_l_tx	malleolusMedv_l_ty	malleolusMedv_l_tz	neck_tx	neck_ty	neck_tz	subclavicle_r_tx	subclavicle_r_ty	subclavicle_r_tz	subclavicle_l_tx	subclavicle_l_ty	subclavicle_l_tz	sternalnotch_tx	sternalnotch_ty	sternalnotch_tz	xyphoidprocess_tx	xyphoidprocess_ty	xyphoidprocess_tz	thighwand_r_tx	thighwand_r_ty	thighwand_r_tz	thighwand_l_tx	thighwand_l_ty	thighwand_l_tz	upperleg1_r_tx	upperleg1_r_ty	upperleg1_r_tz	upperleg1_l_tx	upperleg1_l_ty	upperleg1_l_tz	upperleg2_r_tx	upperleg2_r_ty	upperleg2_r_tz	upperleg2_l_tx	upperleg2_l_ty	upperleg2_l_tz	shankwand_r_tx	shankwand_r_ty	shankwand_r_tz	shankwand_l_tx	shankwand_l_ty	shankwand_l_tz	lowerleg1_r_tx	lowerleg1_r_ty	lowerleg1_r_tz	lowerleg1_l_tx	lowerleg1_l_ty	lowerleg1_l_tz	toe_r_tx	toe_r_ty	toe_r_tz	toe_l_tx	toe_l_ty	toe_l_tz	ground_force_vx	ground_force_vy	ground_force_vz	ground_force_px	ground_force_py	ground_force_pz	ground_force_vx	ground_force_vy	ground_force_vz	ground_force_px	ground_force_py	ground_force_pz	ground_torque_x	ground_torque_y	ground_torque_z	ground_torque_x	ground_torque_y	ground_torque_z	ground_marker_px	ground_marker_py	ground_marker_pz	ground_marker_px	ground_marker_py	ground_marker_pz	ground_marker_px	ground_marker_py	ground_marker_pz	ground_marker_px	ground_marker_py	ground_marker_pz	ground_marker_px	ground_marker_py	ground_marker_pz	ground_marker_px	ground_marker_py	ground_marker_pz	ground_marker_px	ground_marker_py	ground_marker_pz	ground_marker_px	ground_marker_py	ground_marker_pz	ground_marker_px	ground_marker_py	ground_marker_pz	ground_marker_px	ground_marker_py	ground_marker_pz	ground_marker_px	ground_marker_py	ground_marker_pz	ground_marker_px	ground_marker_py	ground_marker_pz	ground_marker_px	ground_marker_py	ground_marker_pz	ground_marker_px	ground_marker_py	ground_marker_pz	ground_marker_px	ground_marker_py	ground_marker_pz	ground_marker_px	ground_marker_py	ground_marker_pz	ground_marker_px	ground_marker_py	ground_marker_pz	ground_marker_px	ground_marker_py	ground_marker_pz	ground_marker_px	ground_marker_py	ground_marker_pz	ground_marker_px	ground_marker_py	ground_marker_pz	ground_marker_px	ground_marker_py	ground_marker_pz	ground_marker_px	ground_marker_py	ground_marker_pz	ground_marker_px	ground_marker_py	ground_marker_pz	ground_marker_px	ground_marker_py	ground_marker_pz	ground_marker_px	ground_marker_py	ground_marker_pz	ground_marker_px	ground_marker_py	ground_marker_pz	ground_marker_px	ground_marker_py	ground_marker_pz	ground_marker_px	ground_marker_py	ground_marker_pz	ground_marker_px	ground_marker_py	ground_marker_pz	ground_marker_px	ground_marker_py	ground_marker_pz	ground_marker_px	ground_marker_py	ground_marker_pz	ground_marker_px	ground_marker_py	ground_marker_pz	ground_marker_px	ground_marker_py	ground_marker_pz	ground_marker_px	ground_marker_py	ground_marker_pz	ground_marker_px	ground_marker_py	ground_marker_pz	ground_marker_px	ground_marker_py	ground_marker_pz	ground_marker_px	ground_marker_py	ground_marker_pz	
      0.15000000	     -0.00127960	      0.91122214	     -0.26374054	     -1.77837470	     -1.14964855	     -3.40814604	     16.24064353	      3.81625808	     13.50729252	     -9.94225793	      0.22762245	      0.00004166	      0.00000000	     -3.25905103	      2.69443860	      6.04640433	    -43.58830230	    -16.93277613	      0.00085380	      0.00000000	      0.85520496	      7.63112616	     -3.08744958	     -0.05507200	      0.87820500	     -0.23798200	     -0.06281900	      0.88943800	     -0.14897800	     -0.04732500	      0.86697100	     -0.32698500	      0.02580700	      0.47500900	     -0.17629900	     -0.11019400	      0.44128500	     -0.32061900	      0.04000700	      0.06888500	     -0.20985300	     -0.40133800	      0.17499500	     -0.32155300	      0.01428700	      0.95068200	     -0.25146900	      0.01805000	      0.95734900	     -0.13381300	      0.01052300	      0.94401600	     -0.36912600	     -0.17213800	      0.99613700	     -0.21398400	     -0.16885700	      0.98925900	     -0.29908800	      0.03880200	      0.47503700	     -0.11730000	     -0.11083400	      0.44195800	     -0.38103700	      0.00312900	      0.47010800	     -0.22907100	     -0.10465400	      0.42022800	     -0.26657600	      0.02922000	      0.06530700	     -0.17150200	     -0.41649800	      0.19156500	     -0.35343700	      0.04706100	      0.08617000	     -0.23619600	     -0.38965200	      0.18309900	     -0.29390400	     -0.17820800	      1.41710800	     -0.23651400	     -0.04962100	      1.33886400	     -0.18607100	     -0.04311800	      1.34801700	     -0.29131200	     -0.06419000	      1.35088300	     -0.23638600	      0.02004600	      1.18922400	     -0.25688200	      0.06148900	      0.57504900	     -0.04152800	      0.05851600	      0.50267800	     -0.34663000	      0.05974500	      0.64556200	     -0.10320700	     -0.00963200	      0.56675600	     -0.37153800	      0.07098000	      0.56108000	     -0.13170500	     -0.04181900	      0.48459300	     -0.36807600	      0.04897100	      0.19251300	     -0.07500100	     -0.30588500	      0.27509600	     -0.44004200	      0.03549700	      0.16421800	     -0.14916900	     -0.33961500	      0.25441800	     -0.36890600	      0.16269800	      0.03997600	     -0.19536600	     -0.40268100	      0.05529700	     -0.29674900	    -75.14628682	    616.29735820	    -15.32429079	      0.05718384	      0.00000000	     -0.20559555	      0.00000000	      0.00000000	      0.00000000	      0.44913257	      0.00000000	     -0.25449088	      0.00000000	     -0.42975879	      0.00000000	      0.00000000	      0.00000000	      0.00000000	     -0.05507155	      0.87820458	     -0.23798156	     -0.06281853	      0.88943774	     -0.14897807	     -0.04732456	      0.86697137	     -0.32698506	      0.02580694	      0.47500855	     -0.17629878	     -0.11019421	      0.44128489	     -0.32061872	      0.04000749	      0.06888470	     -0.20985332	     -0.40133849	      0.17499512	     -0.32155278	      0.01428656	      0.95068228	     -0.25146934	      0.01804996	      0.95734900	     -0.13381268	      0.01052315	      0.94401562	     -0.36912602	     -0.17213841	      0.99613672	     -0.21398418	     -0.16885725	      0.98925877	     -0.29908779	      0.03880189	      0.47503665	     -0.11730003	     -0.11083379	      0.44195807	     -0.38103724	      0.00312868	      0.47010818	     -0.22907148	     -0.10465358	      0.42022812	     -0.26657599	      0.02921958	      0.06530744	     -0.17150199	     -0.41649801	      0.19156493	     -0.35343745	      0.04706149	      0.08616973	     -0.23619640	     -0.38965237	      0.18309851	     -0.29390392	     -0.17820753	      1.41710770	     -0.23651445	     -0.04962061	      1.33886373	     -0.18607126	     -0.04311778	      1.34801662	     -0.29131249	     -0.06419009	      1.35088336	     -0.23638628	      0.02004575	      1.18922448	     -0.25688151	      0.06148918	      0.57504892	     -0.04152769	      0.05851632	      0.50267839	     -0.34663022	      0.05974471	      0.64556223	     -0.10320683	     -0.00963221	      0.56675589	     -0.37153810	      0.07097951	      0.56108046	     -0.13170545	     -0.04181870	      0.48459291	     -0.36807609	      0.04897124	      0.19251277	     -0.07500140	     -0.30588499	      0.27509597	     -0.44004181	      0.03549713	      0.16421783	     -0.14916860	     -0.33961517	      0.25441825	     -0.36890632	      0.16269761	      0.03997650	     -0.19536638	     -0.40268058	      0.05529696	     -0.29674932
      0.15833000	      0.00755971	      0.91247479	     -0.26336119	     -1.72780136	     -1.14699702	     -3.50982115	     15.53819375	      3.75861360	     13.61804917	     -9.59160599	      0.70704040	      0.00004137	      0.00000000	     -1.70519640	      2.48245929	      5.17254517	    -45.95439334	    -18.14632650	      0.00086847	      0.00000000	      0.90712985	      7.57176003	     -2.96353605	     -0.04733800	      0.87876200	     -0.23777900	     -0.05441800	      0.89042300	     -0.14877500	     -0.04025800	      0.86710000	     -0.32678300	      0.02921700	      0.47553000	     -0.17572000	     -0.09182200	      0.44052800	     -0.32110600	      0.04000100	      0.06882900	     -0.20983800	     -0.38623200	      0.18015100	     -0.32244800	      0.02270100	      0.95137400	     -0.25147100	      0.02695000	      0.95792600	     -0.13378800	      0.01845200	      0.94482200	     -0.36915400	     -0.16330200	      0.99725700	     -0.21292200	     -0.16060700	      0.99006600	     -0.29800600	      0.04255100	      0.47498600	     -0.11670400	     -0.09215800	      0.44199200	     -0.38161400	      0.00677000	      0.47152300	     -0.22979400	     -0.08602700	      0.41954300	     -0.26765600	      0.02915100	      0.06531600	     -0.17149800	     -0.40080200	      0.19662200	     -0.35465700	      0.04664900	      0.08630700	     -0.23654300	     -0.37450100	      0.18797200	     -0.29468100	     -0.16912300	      1.41831400	     -0.23576600	     -0.03997200	      1.34025100	     -0.18555500	     -0.03413600	      1.34878000	     -0.29162900	     -0.05484700	      1.35196100	     -0.23600000	      0.02923700	      1.19018200	     -0.25622700	      0.06570000	      0.57475100	     -0.04072700	      0.07583200	      0.50553200	     -0.34724300	      0.06566800	      0.64512400	     -0.10221600	      0.00581400	      0.56840300	     -0.37232300	      0.07566700	      0.56045400	     -0.13142500	     -0.02451500	      0.48533300	     -0.36897300	      0.05016700	      0.19223800	     -0.07475000	     -0.28828900	      0.27725100	     -0.44099600	      0.03654500	      0.16404100	     -0.14900300	     -0.32276100	      0.25762700	     -0.36988300	      0.16274100	      0.03991600	     -0.19547400	     -0.39197300	      0.05946100	     -0.29800000	    -71.19852617	    618.50937131	    -17.59135326	      0.05778888	      0.00000000	     -0.20525975	      0.00000000	      0.00000000	      0.00000000	      0.45079810	      0.00000000	     -0.25471136	      0.00000000	     -0.25428345	      0.00000000	      0.00000000	      0.00000000	      0.00000000	     -0.04733795	      0.87876165	     -0.23777902	     -0.05441783	      0.89042336	     -0.14877507	     -0.04025807	      0.86710000	     -0.32678297	      0.02921729	      0.47553021	     -0.17572007	     -0.09182169	      0.44052753	     -0.32110640	      0.04000071	      0.06882878	     -0.20983835	     -0.38623223	      0.18015078	     -0.32244763	      0.02270129	      0.95137382	     -0.25147080	      0.02695024	      0.95792603	     -0.13378768	      0.01845234	      0.94482160	     -0.36915395	     -0.16330217	      0.99725735	     -0.21292213	     -0.16060668	      0.99006587	     -0.29800645	      0.04255127	      0.47498626	     -0.11670408	     -0.09215798	      0.44199154	     -0.38161358	      0.00677043	      0.47152278	     -0.22979429	     -0.08602659	      0.41954285	     -0.26765621	      0.02915120	      0.06531619	     -0.17149842	     -0.40080181	      0.19662152	     -0.35465696	      0.04664902	      0.08630687	     -0.23654290	     -0.37450147	      0.18797234	     -0.29468116	     -0.16912271	      1.41831374	     -0.23576573	     -0.03997231	      1.34025109	     -0.18555485	     -0.03413559	      1.34878004	     -0.29162928	     -0.05484690	      1.35196054	     -0.23600043	      0.02923731	      1.19018209	     -0.25622654	      0.06570014	      0.57475120	     -0.04072651	      0.07583212	      0.50553215	     -0.34724262	      0.06566782	      0.64512420	     -0.10221551	      0.00581350	      0.56840348	     -0.37232310	      0.07566655	      0.56045413	     -0.13142550	     -0.02451520	      0.48533291	     -0.36897314	      0.05016691	      0.19223760	     -0.07474972	     -0.28828922	      0.27725148	     -0.44099620	      0.03654513	      0.16404149	     -0.14900278	     -0.32276142	      0.25762725	     -0.36988270	      0.16274115	      0.03991640	     -0.19547379	     -0.39197296	      0.05946093	     -0.29799989
      0.16667000	      0.01708427	      0.91359804	     -0.26303975	     -1.78259369	     -1.24036332	     -3.61937864	     14.74967368	      3.80457421	     13.78801503	     -9.12774587	      1.14636906	      0.00004174	      0.00000000	     -0.23076714	      2.19373496	      4.39887138	    -48.19149831	    -18.53029010	      0.00086938	      0.00000000	      1.11746589	      7.71177489	     -2.96266394	     -0.03687900	      0.87963700	     -0.23850500	     -0.04536700	      0.89089200	     -0.14957200	     -0.02839200	      0.86838200	     -0.32743900	      0.03215800	      0.47692200	     -0.17513700	     -0.07153100	      0.43931000	     -0.32139400	      0.03999500	      0.06877100	     -0.20983200	     -0.37077300	      0.18517900	     -0.32308700	      0.03108200	      0.95208000	     -0.25156100	      0.03568200	      0.95851600	     -0.13378600	      0.02648200	      0.94564500	     -0.36933700	     -0.15468000	      0.99831400	     -0.21188300	     -0.15247200	      0.99074200	     -0.29696800	      0.04617800	      0.47483200	     -0.11629800	     -0.07350200	      0.44242200	     -0.38207800	      0.01021500	      0.47398300	     -0.23070800	     -0.06495000	      0.41900300	     -0.26773500	      0.02907700	      0.06533500	     -0.17150500	     -0.38483300	      0.20154700	     -0.35557300	      0.04653500	      0.08630700	     -0.23661800	     -0.35906200	      0.19247900	     -0.29539700	     -0.16010900	      1.41925500	     -0.23495200	     -0.03126200	      1.34133500	     -0.18489100	     -0.02524500	      1.34968600	     -0.29134100	     -0.04563200	      1.35296100	     -0.23568100	      0.03794100	      1.19109200	     -0.25536000	      0.06988200	      0.57455700	     -0.04006800	      0.09315700	      0.50885700	     -0.34763500	      0.07235800	      0.64525800	     -0.10118100	      0.02146400	      0.57054700	     -0.37310100	      0.08048600	      0.56014600	     -0.13110900	     -0.00585400	      0.48654000	     -0.36937400	      0.05127900	      0.19195200	     -0.07454600	     -0.27060500	      0.27966100	     -0.44168900	      0.03698600	      0.16385800	     -0.14900700	     -0.30577300	      0.26092400	     -0.37056000	      0.16276800	      0.03985600	     -0.19557200	     -0.37879200	      0.06360100	     -0.29970700	    -66.39688336	    620.71083987	    -19.11527953	      0.05842924	      0.00000000	     -0.20498094	      0.00000000	      0.00000000	      0.00000000	      0.45278900	      0.00000000	     -0.25506033	      0.00000000	     -0.08267285	      0.00000000	      0.00000000	      0.00000000	      0.00000000	     -0.03687943	      0.87963700	     -0.23850538	     -0.04536720	      0.89089191	     -0.14957222	     -0.02839166	      0.86838204	     -0.32743853	      0.03215848	      0.47692233	     -0.17513698	     -0.07153141	      0.43931037	     -0.32139352	      0.03999482	      0.06877141	     -0.20983247	     -0.37077320	      0.18517874	     -0.32308656	      0.03108200	      0.95208043	     -0.25156143	      0.03568248	      0.95851606	     -0.13378586	      0.02648151	      0.94564480	     -0.36933699	     -0.15467985	      0.99831444	     -0.21188289	     -0.15247172	      0.99074227	     -0.29696816	      0.04617759	      0.47483152	     -0.11629777	     -0.07350153	      0.44242242	     -0.38207775	      0.01021478	      0.47398317	     -0.23070811	     -0.06494960	      0.41900271	     -0.26773453	      0.02907664	      0.06533502	     -0.17150514	     -0.38483274	      0.20154718	     -0.35557348	      0.04653548	      0.08630704	     -0.23661844	     -0.35906166	      0.19247888	     -0.29539654	     -0.16010858	      1.41925490	     -0.23495191	     -0.03126189	      1.34133542	     -0.18489096	     -0.02524521	      1.34968591	     -0.29134116	     -0.04563247	      1.35296071	     -0.23568089	      0.03794099	      1.19109166	     -0.25536034	      0.06988202	      0.57455713	     -0.04006801	      0.09315653	      0.50885713	     -0.34763533	      0.07235806	      0.64525849	     -0.10118096	      0.02146391	      0.57054675	     -0.37310070	      0.08048569	      0.56014645	     -0.13110910	     -0.00585352	      0.48653975	     -0.36937407	      0.05127886	      0.19195208	     -0.07454625	     -0.27060530	      0.27966091	     -0.44168949	      0.03698603	      0.16385826	     -0.14900734	     -0.30577260	      0.26092407	     -0.37056008	      0.16276793	      0.03985597	     -0.19557165	     -0.37879226	      0.06360111	     -0.29970747
      0.17500000	      0.02637975	      0.91499715	     -0.26264732	     -1.79222734	     -1.28231835	     -3.62145653	     13.78892163	      3.78208430	     14.01671193	     -8.50771255	      1.41854498	      0.00003873	      0.00000000	      1.09151732	      1.97281291	      3.88679318	    -50.21712245	    -18.04040657	      0.00085951	      0.00000000	      1.15124718	      7.73672319	     -2.50534486	     -0.02841500	      0.88072200	     -0.23890100	     -0.03656800	      0.89162200	     -0.14989200	     -0.02026100	      0.86982200	     -0.32790900	      0.03308600	      0.48023700	     -0.17516900	     -0.05145700	      0.43876000	     -0.32203800	      0.03995900	      0.06872200	     -0.20985600	     -0.35491800	      0.18986800	     -0.32350200	      0.03956600	      0.95288500	     -0.25155800	      0.04423200	      0.95911100	     -0.13373600	      0.03489900	      0.94666000	     -0.36938000	     -0.14629800	      0.99929100	     -0.21089700	     -0.14437000	      0.99134400	     -0.29601500	      0.04965700	      0.47456300	     -0.11600800	     -0.05495400	      0.44327700	     -0.38239600	      0.01223800	      0.47883900	     -0.23184000	     -0.04374700	      0.41830000	     -0.26796600	      0.02900800	      0.06536000	     -0.17153100	     -0.36860200	      0.20618800	     -0.35617300	      0.04643800	      0.08624200	     -0.23671600	     -0.34307000	      0.19680100	     -0.29641000	     -0.15092700	      1.42031100	     -0.23382800	     -0.02229400	      1.34187700	     -0.18491900	     -0.01651100	      1.35069200	     -0.29093900	     -0.03656200	      1.35388200	     -0.23540800	      0.04629500	      1.19175600	     -0.25606800	      0.07419100	      0.57441600	     -0.03956200	      0.11036900	      0.51264800	     -0.34779600	      0.08145000	      0.64625600	     -0.10003600	      0.03717100	      0.57284400	     -0.37313200	      0.08538300	      0.55993000	     -0.13065400	      0.01269100	      0.48821600	     -0.36961300	      0.05238800	      0.19162600	     -0.07440700	     -0.25298500	      0.28241700	     -0.44207400	      0.03732700	      0.16374100	     -0.14891000	     -0.28885100	      0.26452900	     -0.37108200	      0.16275400	      0.03975500	     -0.19564800	     -0.36298600	      0.06756600	     -0.30180100	    -60.93626909	    622.73633381	    -19.95978469	      0.05927411	      0.00000000	     -0.20472079	      0.00000000	      0.00000000	      0.00000000	      0.45510834	      0.00000000	     -0.25553110	      0.00000000	      0.06941284	      0.00000000	      0.00000000	      0.00000000	      0.00000000	     -0.02841454	      0.88072222	     -0.23890054	     -0.03656844	      0.89162219	     -0.14989197	     -0.02026063	      0.86982226	     -0.32790911	      0.03308604	      0.48023739	     -0.17516875	     -0.05145695	      0.43876004	     -0.32203814	      0.03995869	      0.06872188	     -0.20985606	     -0.35491812	      0.18986776	     -0.32350174	      0.03956572	      0.95288545	     -0.25155801	      0.04423200	      0.95911127	     -0.13373551	      0.03489944	      0.94665962	     -0.36938047	     -0.14629798	      0.99929106	     -0.21089733	     -0.14437032	      0.99134392	     -0.29601464	      0.04965736	      0.47456256	     -0.11600831	     -0.05495423	      0.44327721	     -0.38239631	      0.01223759	      0.47883850	     -0.23183961	     -0.04374749	      0.41829967	     -0.26796630	      0.02900818	      0.06535976	     -0.17153138	     -0.36860171	      0.20618814	     -0.35617289	      0.04643811	      0.08624167	     -0.23671597	     -0.34307024	      0.19680144	     -0.29641047	     -0.15092725	      1.42031074	     -0.23382755	     -0.02229402	      1.34187746	     -0.18491885	     -0.01651119	      1.35069239	     -0.29093879	     -0.03656237	      1.35388231	     -0.23540826	      0.04629530	      1.19175649	     -0.25606814	      0.07419140	      0.57441556	     -0.03956216	      0.11036944	      0.51264822	     -0.34779629	      0.08144987	      0.64625645	     -0.10003556	      0.03717051	      0.57284433	     -0.37313223	      0.08538346	      0.55992967	     -0.13065377	      0.01269132	      0.48821554	     -0.36961317	      0.05238759	      0.19162643	     -0.07440659	     -0.25298482	      0.28241655	     -0.44207382	      0.03732697	      0.16374128	     -0.14891019	     -0.28885111	      0.26452947	     -0.37108237	      0.16275378	      0.03975479	     -0.19564809	     -0.36298567	      0.06756598	     -0.30180112
